{"title":"Knock Knock 2015 720p BRRip XviD AC3-RARBG","uid":12585441,"size":3319467942,"categoryP":"video","categoryS":"hd___movies","magnet":"?xt=urn:btih:7be47eef421607436236c8e0e4f010471002abcc&amp;dn=Knock+Knock+2015+720p+BRRip+XviD+AC3-RARBG&amp;tr=udp%3A%2F%2Ftracker.leechers-paradise.org%3A6969&amp;tr=udp%3A%2F%2Fzer0day.ch%3A1337&amp;tr=udp%3A%2F%2Fopen.demonii.com%3A1337&amp;tr=udp%3A%2F%2Ftracker.coppersurfer.tk%3A6969&amp;tr=udp%3A%2F%2Fexodus.desync.com%3A6969","seeders":0,"leechers":0,"uploader":"TheRival","files":6,"time":1445007888,"description":"Screens:  \nhttp://extraimago.com/image/9GT  \nhttp://extraimago.com/image/9Gj  \nhttp://extraimago.com/image/9Gn\r\n\r\nVideo\r\nID : 0\r\nFormat : MPEG-4 Visual\r\nFormat profile :   \r\nFormat settings, BVOP : No\r\nFormat settings, QPel : No\r\nFormat settings, GMC : No warppoints\r\nFormat settings, Matrix : Default (H.263)\r\nCodec ID : XVID\r\nCodec ID/Hint : XviD\r\nDuration : 1h 39mn\r\nBit rate : 3 798 Kbps\r\nWidth : 1 280 pixels\r\nHeight : 536 pixels\r\nDisplay aspect ratio : 2.40:1\r\nFrame rate : 23.976 fps\r\nColor space : YUV\r\nChroma subsampling : 4:2:0\r\nBit depth : 8 bits\r\nScan type : Progressive\r\nCompression mode : Lossy\r\nBits/(Pixel*Frame) : 0.231\r\nStream size : 2.64 GiB (85%)\r\nWriting library : Lavc56.60.100\r\n\r\nAudio\r\nID : 1\r\nFormat : AC-3\r\nFormat/Info : Audio Coding 3\r\nMode extension : CM (complete main)\r\nFormat settings, Endianness : Big\r\nCodec ID : 2000\r\nDuration : 1h 39mn\r\nBit rate mode : Constant\r\nBit rate : 640 Kbps\r\nChannel(s) : 6 channels\r\nChannel positions : Front: L C R, Side: L R, LFE\r\nSampling rate : 48.0 KHz\r\nCompression mode : Lossy\r\nStream size : 455 MiB (14%)\r\nAlignment : Aligned on interleaves\r\nInterleave, duration : 42 ms (1.00 video frame)\r\nInterleave, preload duration : 512 ms","torrent":{"xt":"urn:btih:7be47eef421607436236c8e0e4f010471002abcc","amp;dn":"Knock+Knock+2015+720p+BRRip+XviD+AC3-RARBG","amp;tr":["udp%3A%2F%2Ftracker.leechers-paradise.org%3A6969","udp%3A%2F%2Fzer0day.ch%3A1337","udp%3A%2F%2Fopen.demonii.com%3A1337","udp%3A%2F%2Ftracker.coppersurfer.tk%3A6969","udp%3A%2F%2Fexodus.desync.com%3A6969"],"infoHash":"7be47eef421607436236c8e0e4f010471002abcc","infoHashBuffer":{"type":"Buffer","data":[123,228,126,239,66,22,7,67,98,54,200,224,228,240,16,71,16,2,171,204]},"announce":[],"urlList":[]}}